<mxfile host="app.diagrams.net" agent="Mozilla/5.0 (Macintosh; Intel Mac OS X 10_15_7) AppleWebKit/605.1.15 (KHTML, like Gecko) Version/18.0.1 Safari/605.1.15" version="24.8.6">
  <diagram name="Page-1" id="0783ab3e-0a74-02c8-0abd-f7b4e66b4bec">
    <mxGraphModel dx="954" dy="599" grid="1" gridSize="10" guides="1" tooltips="1" connect="1" arrows="1" fold="1" page="1" pageScale="1" pageWidth="850" pageHeight="1100" background="none" math="0" shadow="0">
      <root>
        <mxCell id="0" />
        <mxCell id="1" parent="0" />
        <mxCell id="1c1d494c118603dd-1" value="" style="swimlane;html=1;childLayout=stackLayout;startSize=20;rounded=0;shadow=0;comic=0;labelBackgroundColor=none;strokeWidth=1;fontFamily=Verdana;fontSize=12;align=center;" parent="1" vertex="1">
          <mxGeometry x="40" y="20" width="750" height="950" as="geometry" />
        </mxCell>
        <mxCell id="1c1d494c118603dd-2" value="Guest" style="swimlane;html=1;startSize=20;" parent="1c1d494c118603dd-1" vertex="1">
          <mxGeometry y="20" width="250" height="930" as="geometry" />
        </mxCell>
        <mxCell id="60571a20871a0731-4" value="" style="ellipse;whiteSpace=wrap;html=1;rounded=0;shadow=0;comic=0;labelBackgroundColor=none;strokeWidth=1;fillColor=#000000;fontFamily=Verdana;fontSize=12;align=center;" parent="1c1d494c118603dd-2" vertex="1">
          <mxGeometry x="95" y="50" width="30" height="30" as="geometry" />
        </mxCell>
        <mxCell id="XNlw5FPeqtOS92LYTXNj-4" style="edgeStyle=orthogonalEdgeStyle;rounded=0;orthogonalLoop=1;jettySize=auto;html=1;" parent="1c1d494c118603dd-2" source="60571a20871a0731-8" edge="1">
          <mxGeometry relative="1" as="geometry">
            <mxPoint x="110" y="170" as="targetPoint" />
          </mxGeometry>
        </mxCell>
        <mxCell id="60571a20871a0731-8" value="Open DyOnOr App" style="rounded=1;whiteSpace=wrap;html=1;shadow=0;comic=0;labelBackgroundColor=none;strokeWidth=1;fontFamily=Verdana;fontSize=12;align=center;arcSize=50;" parent="1c1d494c118603dd-2" vertex="1">
          <mxGeometry x="60" y="110" width="100" height="30" as="geometry" />
        </mxCell>
        <mxCell id="1c1d494c118603dd-27" style="edgeStyle=orthogonalEdgeStyle;rounded=0;html=1;labelBackgroundColor=none;startArrow=none;startFill=0;startSize=5;endArrow=classicThin;endFill=1;endSize=5;jettySize=auto;orthogonalLoop=1;strokeWidth=1;fontFamily=Verdana;fontSize=12" parent="1c1d494c118603dd-2" source="60571a20871a0731-4" target="60571a20871a0731-8" edge="1">
          <mxGeometry relative="1" as="geometry" />
        </mxCell>
        <mxCell id="XNlw5FPeqtOS92LYTXNj-5" value="Choose a restaurant" style="rounded=1;whiteSpace=wrap;html=1;shadow=0;comic=0;labelBackgroundColor=none;strokeWidth=1;fontFamily=Verdana;fontSize=12;align=center;arcSize=50;" parent="1c1d494c118603dd-2" vertex="1">
          <mxGeometry x="60" y="170" width="100" height="30" as="geometry" />
        </mxCell>
        <mxCell id="XNlw5FPeqtOS92LYTXNj-14" value="Select to reservate a table for x people" style="rounded=1;whiteSpace=wrap;html=1;shadow=0;comic=0;labelBackgroundColor=none;strokeWidth=1;fontFamily=Verdana;fontSize=12;align=center;arcSize=50;" parent="1c1d494c118603dd-2" vertex="1">
          <mxGeometry x="52.5" y="230" width="115" height="40" as="geometry" />
        </mxCell>
        <mxCell id="XNlw5FPeqtOS92LYTXNj-24" value="Select table and time slot" style="rounded=1;whiteSpace=wrap;html=1;shadow=0;comic=0;labelBackgroundColor=none;strokeWidth=1;fontFamily=Verdana;fontSize=12;align=center;arcSize=50;" parent="1c1d494c118603dd-2" vertex="1">
          <mxGeometry x="137.18" y="660" width="95.63" height="60" as="geometry" />
        </mxCell>
        <mxCell id="u8ni4VSXbeXr_Ucm6xt7-27" style="edgeStyle=orthogonalEdgeStyle;rounded=0;orthogonalLoop=1;jettySize=auto;html=1;entryX=0.5;entryY=0;entryDx=0;entryDy=0;" edge="1" parent="1c1d494c118603dd-2" source="u8ni4VSXbeXr_Ucm6xt7-20" target="u8ni4VSXbeXr_Ucm6xt7-24">
          <mxGeometry relative="1" as="geometry" />
        </mxCell>
        <mxCell id="u8ni4VSXbeXr_Ucm6xt7-20" value="" style="rhombus;whiteSpace=wrap;html=1;" vertex="1" parent="1c1d494c118603dd-2">
          <mxGeometry x="102.18" y="600" width="40" height="40" as="geometry" />
        </mxCell>
        <mxCell id="u8ni4VSXbeXr_Ucm6xt7-21" value="satisfied" style="text;html=1;align=center;verticalAlign=middle;whiteSpace=wrap;rounded=0;" vertex="1" parent="1c1d494c118603dd-2">
          <mxGeometry x="137.18" y="590" width="60" height="30" as="geometry" />
        </mxCell>
        <mxCell id="u8ni4VSXbeXr_Ucm6xt7-22" value="not satisfied" style="text;html=1;align=center;verticalAlign=middle;whiteSpace=wrap;rounded=0;rotation=0;" vertex="1" parent="1c1d494c118603dd-2">
          <mxGeometry x="43.750000000000014" y="580" width="51.25" height="30" as="geometry" />
        </mxCell>
        <mxCell id="u8ni4VSXbeXr_Ucm6xt7-24" value="Cancel" style="rounded=1;whiteSpace=wrap;html=1;shadow=0;comic=0;labelBackgroundColor=none;strokeWidth=1;fontFamily=Verdana;fontSize=12;align=center;arcSize=50;" vertex="1" parent="1c1d494c118603dd-2">
          <mxGeometry x="17.18" y="675" width="60" height="40" as="geometry" />
        </mxCell>
        <mxCell id="u8ni4VSXbeXr_Ucm6xt7-44" style="edgeStyle=orthogonalEdgeStyle;rounded=0;orthogonalLoop=1;jettySize=auto;html=1;entryX=0.5;entryY=0;entryDx=0;entryDy=0;" edge="1" parent="1c1d494c118603dd-2" source="u8ni4VSXbeXr_Ucm6xt7-37" target="u8ni4VSXbeXr_Ucm6xt7-41">
          <mxGeometry relative="1" as="geometry">
            <Array as="points">
              <mxPoint x="155" y="410" />
            </Array>
          </mxGeometry>
        </mxCell>
        <mxCell id="u8ni4VSXbeXr_Ucm6xt7-45" style="edgeStyle=orthogonalEdgeStyle;rounded=0;orthogonalLoop=1;jettySize=auto;html=1;entryX=0;entryY=0.5;entryDx=0;entryDy=0;" edge="1" parent="1c1d494c118603dd-2" source="u8ni4VSXbeXr_Ucm6xt7-37" target="XNlw5FPeqtOS92LYTXNj-5">
          <mxGeometry relative="1" as="geometry">
            <Array as="points">
              <mxPoint x="40" y="410" />
              <mxPoint x="40" y="185" />
            </Array>
          </mxGeometry>
        </mxCell>
        <mxCell id="u8ni4VSXbeXr_Ucm6xt7-37" value="" style="rhombus;whiteSpace=wrap;html=1;" vertex="1" parent="1c1d494c118603dd-2">
          <mxGeometry x="94.99999999999994" y="390" width="40" height="40" as="geometry" />
        </mxCell>
        <mxCell id="u8ni4VSXbeXr_Ucm6xt7-41" value="Cancel" style="rounded=1;whiteSpace=wrap;html=1;shadow=0;comic=0;labelBackgroundColor=none;strokeWidth=1;fontFamily=Verdana;fontSize=12;align=center;arcSize=50;" vertex="1" parent="1c1d494c118603dd-2">
          <mxGeometry x="125" y="450" width="60" height="40" as="geometry" />
        </mxCell>
        <mxCell id="u8ni4VSXbeXr_Ucm6xt7-47" style="edgeStyle=orthogonalEdgeStyle;rounded=0;orthogonalLoop=1;jettySize=auto;html=1;" edge="1" parent="1c1d494c118603dd-2">
          <mxGeometry relative="1" as="geometry">
            <mxPoint x="142.18" y="620" as="sourcePoint" />
            <mxPoint x="190" y="660" as="targetPoint" />
            <Array as="points">
              <mxPoint x="190" y="620" />
              <mxPoint x="190" y="660" />
            </Array>
          </mxGeometry>
        </mxCell>
        <mxCell id="1c1d494c118603dd-3" value="DyOnOr App" style="swimlane;html=1;startSize=20;" parent="1c1d494c118603dd-1" vertex="1">
          <mxGeometry x="250" y="20" width="250" height="930" as="geometry" />
        </mxCell>
        <mxCell id="XNlw5FPeqtOS92LYTXNj-7" value="Receive Selection Request" style="rounded=1;whiteSpace=wrap;html=1;shadow=0;comic=0;labelBackgroundColor=none;strokeWidth=1;fontFamily=Verdana;fontSize=12;align=center;arcSize=50;" parent="1c1d494c118603dd-3" vertex="1">
          <mxGeometry x="67.5" y="165" width="115" height="40" as="geometry" />
        </mxCell>
        <mxCell id="XNlw5FPeqtOS92LYTXNj-12" value="Display selected restaurant page" style="rounded=1;whiteSpace=wrap;html=1;shadow=0;comic=0;labelBackgroundColor=none;strokeWidth=1;fontFamily=Verdana;fontSize=12;align=center;arcSize=50;" parent="1c1d494c118603dd-3" vertex="1">
          <mxGeometry x="58.75" y="230" width="132.5" height="40" as="geometry" />
        </mxCell>
        <mxCell id="XNlw5FPeqtOS92LYTXNj-17" value="Receive Reservation Request" style="rounded=1;whiteSpace=wrap;html=1;shadow=0;comic=0;labelBackgroundColor=none;strokeWidth=1;fontFamily=Verdana;fontSize=12;align=center;arcSize=50;" parent="1c1d494c118603dd-3" vertex="1">
          <mxGeometry x="55" y="300" width="140" height="40" as="geometry" />
        </mxCell>
        <mxCell id="XNlw5FPeqtOS92LYTXNj-22" value="Display table and slot suggestions" style="rounded=1;whiteSpace=wrap;html=1;shadow=0;comic=0;labelBackgroundColor=none;strokeWidth=1;fontFamily=Verdana;fontSize=12;align=center;arcSize=50;" parent="1c1d494c118603dd-3" vertex="1">
          <mxGeometry x="51.25" y="580" width="140" height="40" as="geometry" />
        </mxCell>
        <mxCell id="XNlw5FPeqtOS92LYTXNj-25" value="Submit reservation details" style="rounded=1;whiteSpace=wrap;html=1;shadow=0;comic=0;labelBackgroundColor=none;strokeWidth=1;fontFamily=Verdana;fontSize=12;align=center;arcSize=50;" parent="1c1d494c118603dd-3" vertex="1">
          <mxGeometry x="58.75" y="670" width="132.5" height="40" as="geometry" />
        </mxCell>
        <mxCell id="XNlw5FPeqtOS92LYTXNj-8" style="edgeStyle=orthogonalEdgeStyle;rounded=0;orthogonalLoop=1;jettySize=auto;html=1;entryX=0.5;entryY=0;entryDx=0;entryDy=0;" parent="1c1d494c118603dd-3" source="XNlw5FPeqtOS92LYTXNj-7" target="XNlw5FPeqtOS92LYTXNj-12" edge="1">
          <mxGeometry relative="1" as="geometry">
            <mxPoint x="320.03" y="185" as="targetPoint" />
          </mxGeometry>
        </mxCell>
        <mxCell id="XNlw5FPeqtOS92LYTXNj-42" style="edgeStyle=orthogonalEdgeStyle;rounded=0;orthogonalLoop=1;jettySize=auto;html=1;entryX=1;entryY=0.5;entryDx=0;entryDy=0;" parent="1c1d494c118603dd-3" edge="1">
          <mxGeometry relative="1" as="geometry">
            <mxPoint x="376.25" y="810" as="sourcePoint" />
            <mxPoint x="195" y="780" as="targetPoint" />
            <Array as="points">
              <mxPoint x="376" y="840" />
              <mxPoint x="226" y="840" />
              <mxPoint x="226" y="780" />
            </Array>
          </mxGeometry>
        </mxCell>
        <mxCell id="u8ni4VSXbeXr_Ucm6xt7-14" value="Display decline" style="rounded=1;whiteSpace=wrap;html=1;shadow=0;comic=0;labelBackgroundColor=none;strokeWidth=1;fontFamily=Verdana;fontSize=12;align=center;arcSize=50;" vertex="1" parent="1c1d494c118603dd-3">
          <mxGeometry x="141" y="420" width="57.5" height="50" as="geometry" />
        </mxCell>
        <mxCell id="u8ni4VSXbeXr_Ucm6xt7-29" value="" style="whiteSpace=wrap;html=1;rounded=0;shadow=0;comic=0;labelBackgroundColor=none;strokeWidth=1;fillColor=#000000;fontFamily=Verdana;fontSize=12;align=center;rotation=0;" vertex="1" parent="1c1d494c118603dd-3">
          <mxGeometry x="51.5" y="390" width="147" height="10" as="geometry" />
        </mxCell>
        <mxCell id="XNlw5FPeqtOS92LYTXNj-43" value="View confirmation details" style="rounded=1;whiteSpace=wrap;html=1;shadow=0;comic=0;labelBackgroundColor=none;strokeWidth=1;fontFamily=Verdana;fontSize=12;align=center;arcSize=50;" parent="1c1d494c118603dd-3" vertex="1">
          <mxGeometry x="-195" y="760" width="140" height="40" as="geometry" />
        </mxCell>
        <mxCell id="60571a20871a0731-5" value="" style="shape=mxgraph.bpmn.shape;html=1;verticalLabelPosition=bottom;labelBackgroundColor=#ffffff;verticalAlign=top;perimeter=ellipsePerimeter;outline=end;symbol=terminate;rounded=0;shadow=0;comic=0;strokeWidth=1;fontFamily=Verdana;fontSize=12;align=center;" parent="1c1d494c118603dd-3" vertex="1">
          <mxGeometry x="-140" y="860" width="30" height="30" as="geometry" />
        </mxCell>
        <mxCell id="XNlw5FPeqtOS92LYTXNj-53" style="edgeStyle=orthogonalEdgeStyle;rounded=0;orthogonalLoop=1;jettySize=auto;html=1;entryX=1;entryY=0.5;entryDx=0;entryDy=0;" parent="1c1d494c118603dd-3" source="XNlw5FPeqtOS92LYTXNj-40" target="XNlw5FPeqtOS92LYTXNj-43" edge="1">
          <mxGeometry relative="1" as="geometry" />
        </mxCell>
        <mxCell id="XNlw5FPeqtOS92LYTXNj-40" value="Show confirmation details" style="rounded=1;whiteSpace=wrap;html=1;shadow=0;comic=0;labelBackgroundColor=none;strokeWidth=1;fontFamily=Verdana;fontSize=12;align=center;arcSize=50;" parent="1c1d494c118603dd-3" vertex="1">
          <mxGeometry x="55" y="760" width="140" height="40" as="geometry" />
        </mxCell>
        <mxCell id="XNlw5FPeqtOS92LYTXNj-55" style="edgeStyle=orthogonalEdgeStyle;rounded=0;orthogonalLoop=1;jettySize=auto;html=1;entryX=0.5;entryY=0;entryDx=0;entryDy=0;" parent="1c1d494c118603dd-3" source="XNlw5FPeqtOS92LYTXNj-43" target="60571a20871a0731-5" edge="1">
          <mxGeometry relative="1" as="geometry" />
        </mxCell>
        <mxCell id="u8ni4VSXbeXr_Ucm6xt7-30" value="Suggest other restaurants" style="rounded=1;whiteSpace=wrap;html=1;shadow=0;comic=0;labelBackgroundColor=none;strokeWidth=1;fontFamily=Verdana;fontSize=12;align=center;arcSize=50;" vertex="1" parent="1c1d494c118603dd-3">
          <mxGeometry x="30" y="420" width="100" height="50" as="geometry" />
        </mxCell>
        <mxCell id="u8ni4VSXbeXr_Ucm6xt7-31" style="edgeStyle=none;rounded=0;html=1;labelBackgroundColor=none;startArrow=none;startFill=0;startSize=5;endArrow=classicThin;endFill=1;endSize=5;jettySize=auto;orthogonalLoop=1;strokeWidth=1;fontFamily=Verdana;fontSize=12;entryX=0.5;entryY=0;entryDx=0;entryDy=0;" edge="1" parent="1c1d494c118603dd-3">
          <mxGeometry relative="1" as="geometry">
            <mxPoint x="80.12" y="400" as="sourcePoint" />
            <mxPoint x="79.49500000000012" y="420" as="targetPoint" />
          </mxGeometry>
        </mxCell>
        <mxCell id="u8ni4VSXbeXr_Ucm6xt7-32" style="edgeStyle=none;rounded=0;html=1;labelBackgroundColor=none;startArrow=none;startFill=0;startSize=5;endArrow=classicThin;endFill=1;endSize=5;jettySize=auto;orthogonalLoop=1;strokeWidth=1;fontFamily=Verdana;fontSize=12;entryX=0.626;entryY=0.02;entryDx=0;entryDy=0;exitX=0.847;exitY=0.8;exitDx=0;exitDy=0;exitPerimeter=0;entryPerimeter=0;" edge="1" parent="1c1d494c118603dd-3" source="u8ni4VSXbeXr_Ucm6xt7-29" target="u8ni4VSXbeXr_Ucm6xt7-14">
          <mxGeometry relative="1" as="geometry">
            <mxPoint x="170" y="410" as="sourcePoint" />
            <mxPoint x="89.49500000000012" y="430" as="targetPoint" />
          </mxGeometry>
        </mxCell>
        <mxCell id="u8ni4VSXbeXr_Ucm6xt7-33" value="" style="whiteSpace=wrap;html=1;rounded=0;shadow=0;comic=0;labelBackgroundColor=none;strokeWidth=1;fillColor=#000000;fontFamily=Verdana;fontSize=12;align=center;rotation=0;" vertex="1" parent="1c1d494c118603dd-3">
          <mxGeometry x="44.25" y="490" width="147" height="10" as="geometry" />
        </mxCell>
        <mxCell id="u8ni4VSXbeXr_Ucm6xt7-34" style="edgeStyle=none;rounded=0;html=1;labelBackgroundColor=none;startArrow=none;startFill=0;startSize=5;endArrow=classicThin;endFill=1;endSize=5;jettySize=auto;orthogonalLoop=1;strokeWidth=1;fontFamily=Verdana;fontSize=12;" edge="1" parent="1c1d494c118603dd-3">
          <mxGeometry relative="1" as="geometry">
            <mxPoint x="72.13" y="470" as="sourcePoint" />
            <mxPoint x="71.75" y="490" as="targetPoint" />
            <Array as="points">
              <mxPoint x="71.63" y="470" />
            </Array>
          </mxGeometry>
        </mxCell>
        <mxCell id="u8ni4VSXbeXr_Ucm6xt7-35" style="edgeStyle=none;rounded=0;html=1;labelBackgroundColor=none;startArrow=none;startFill=0;startSize=5;endArrow=classicThin;endFill=1;endSize=5;jettySize=auto;orthogonalLoop=1;strokeWidth=1;fontFamily=Verdana;fontSize=12;" edge="1" parent="1c1d494c118603dd-3">
          <mxGeometry relative="1" as="geometry">
            <mxPoint x="173.25" y="470" as="sourcePoint" />
            <mxPoint x="172.75" y="490" as="targetPoint" />
          </mxGeometry>
        </mxCell>
        <mxCell id="XNlw5FPeqtOS92LYTXNj-6" style="edgeStyle=orthogonalEdgeStyle;rounded=0;orthogonalLoop=1;jettySize=auto;html=1;entryX=0;entryY=0.5;entryDx=0;entryDy=0;" parent="1c1d494c118603dd-1" source="XNlw5FPeqtOS92LYTXNj-5" target="XNlw5FPeqtOS92LYTXNj-7" edge="1">
          <mxGeometry relative="1" as="geometry">
            <mxPoint x="290" y="205" as="targetPoint" />
          </mxGeometry>
        </mxCell>
        <mxCell id="XNlw5FPeqtOS92LYTXNj-16" style="edgeStyle=orthogonalEdgeStyle;rounded=0;orthogonalLoop=1;jettySize=auto;html=1;entryX=1;entryY=0.5;entryDx=0;entryDy=0;" parent="1c1d494c118603dd-1" source="XNlw5FPeqtOS92LYTXNj-12" target="XNlw5FPeqtOS92LYTXNj-14" edge="1">
          <mxGeometry relative="1" as="geometry" />
        </mxCell>
        <mxCell id="XNlw5FPeqtOS92LYTXNj-20" style="edgeStyle=orthogonalEdgeStyle;rounded=0;orthogonalLoop=1;jettySize=auto;html=1;entryX=0;entryY=0.5;entryDx=0;entryDy=0;" parent="1c1d494c118603dd-1" source="XNlw5FPeqtOS92LYTXNj-14" target="XNlw5FPeqtOS92LYTXNj-17" edge="1">
          <mxGeometry relative="1" as="geometry">
            <Array as="points">
              <mxPoint x="110" y="340" />
            </Array>
          </mxGeometry>
        </mxCell>
        <mxCell id="XNlw5FPeqtOS92LYTXNj-21" style="edgeStyle=orthogonalEdgeStyle;rounded=0;orthogonalLoop=1;jettySize=auto;html=1;entryX=0.5;entryY=0;entryDx=0;entryDy=0;" parent="1c1d494c118603dd-1" source="XNlw5FPeqtOS92LYTXNj-17" target="u8ni4VSXbeXr_Ucm6xt7-1" edge="1">
          <mxGeometry relative="1" as="geometry" />
        </mxCell>
        <mxCell id="XNlw5FPeqtOS92LYTXNj-23" style="edgeStyle=orthogonalEdgeStyle;rounded=0;orthogonalLoop=1;jettySize=auto;html=1;entryX=1;entryY=0.5;entryDx=0;entryDy=0;" parent="1c1d494c118603dd-1" source="XNlw5FPeqtOS92LYTXNj-18" target="XNlw5FPeqtOS92LYTXNj-22" edge="1">
          <mxGeometry relative="1" as="geometry">
            <Array as="points">
              <mxPoint x="686" y="620" />
            </Array>
          </mxGeometry>
        </mxCell>
        <mxCell id="1c1d494c118603dd-4" value="DyOnOr Back-End" style="swimlane;html=1;startSize=20;" parent="1c1d494c118603dd-1" vertex="1">
          <mxGeometry x="500" y="20" width="250" height="930" as="geometry" />
        </mxCell>
        <mxCell id="XNlw5FPeqtOS92LYTXNj-18" value="Retreive available tables and time slots" style="rounded=1;whiteSpace=wrap;html=1;shadow=0;comic=0;labelBackgroundColor=none;strokeWidth=1;fontFamily=Verdana;fontSize=12;align=center;arcSize=50;" parent="1c1d494c118603dd-4" vertex="1">
          <mxGeometry x="140" y="340" width="91.25" height="70" as="geometry" />
        </mxCell>
        <mxCell id="1c1d494c118603dd-12" value="" style="whiteSpace=wrap;html=1;rounded=0;shadow=0;comic=0;labelBackgroundColor=none;strokeWidth=1;fillColor=#000000;fontFamily=Verdana;fontSize=12;align=center;rotation=0;" parent="1c1d494c118603dd-4" vertex="1">
          <mxGeometry x="50.63" y="710" width="147" height="10" as="geometry" />
        </mxCell>
        <mxCell id="XNlw5FPeqtOS92LYTXNj-31" value="Validate reservation" style="rounded=1;whiteSpace=wrap;html=1;shadow=0;comic=0;labelBackgroundColor=none;strokeWidth=1;fontFamily=Verdana;fontSize=12;align=center;arcSize=50;" parent="1c1d494c118603dd-4" vertex="1">
          <mxGeometry x="20" y="740" width="101.25" height="40" as="geometry" />
        </mxCell>
        <mxCell id="XNlw5FPeqtOS92LYTXNj-32" value="Store reservation" style="rounded=1;whiteSpace=wrap;html=1;shadow=0;comic=0;labelBackgroundColor=none;strokeWidth=1;fontFamily=Verdana;fontSize=12;align=center;arcSize=50;" parent="1c1d494c118603dd-4" vertex="1">
          <mxGeometry x="135.63" y="740" width="80" height="40" as="geometry" />
        </mxCell>
        <mxCell id="XNlw5FPeqtOS92LYTXNj-33" style="edgeStyle=none;rounded=0;html=1;labelBackgroundColor=none;startArrow=none;startFill=0;startSize=5;endArrow=classicThin;endFill=1;endSize=5;jettySize=auto;orthogonalLoop=1;strokeWidth=1;fontFamily=Verdana;fontSize=12;entryX=0.5;entryY=0;entryDx=0;entryDy=0;" parent="1c1d494c118603dd-4" edge="1">
          <mxGeometry relative="1" as="geometry">
            <mxPoint x="75.63" y="720" as="sourcePoint" />
            <mxPoint x="75.00500000000011" y="740" as="targetPoint" />
          </mxGeometry>
        </mxCell>
        <mxCell id="XNlw5FPeqtOS92LYTXNj-35" style="edgeStyle=none;rounded=0;html=1;labelBackgroundColor=none;startArrow=none;startFill=0;startSize=5;endArrow=classicThin;endFill=1;endSize=5;jettySize=auto;orthogonalLoop=1;strokeWidth=1;fontFamily=Verdana;fontSize=12;entryX=0.5;entryY=0;entryDx=0;entryDy=0;" parent="1c1d494c118603dd-4" edge="1">
          <mxGeometry relative="1" as="geometry">
            <mxPoint x="176.13" y="720" as="sourcePoint" />
            <mxPoint x="175.13" y="740" as="targetPoint" />
          </mxGeometry>
        </mxCell>
        <mxCell id="XNlw5FPeqtOS92LYTXNj-36" value="" style="whiteSpace=wrap;html=1;rounded=0;shadow=0;comic=0;labelBackgroundColor=none;strokeWidth=1;fillColor=#000000;fontFamily=Verdana;fontSize=12;align=center;rotation=0;" parent="1c1d494c118603dd-4" vertex="1">
          <mxGeometry x="47.13" y="800" width="147" height="10" as="geometry" />
        </mxCell>
        <mxCell id="XNlw5FPeqtOS92LYTXNj-37" style="edgeStyle=none;rounded=0;html=1;labelBackgroundColor=none;startArrow=none;startFill=0;startSize=5;endArrow=classicThin;endFill=1;endSize=5;jettySize=auto;orthogonalLoop=1;strokeWidth=1;fontFamily=Verdana;fontSize=12;" parent="1c1d494c118603dd-4" edge="1">
          <mxGeometry relative="1" as="geometry">
            <mxPoint x="75.00999999999999" y="780" as="sourcePoint" />
            <mxPoint x="74.63" y="800" as="targetPoint" />
            <Array as="points">
              <mxPoint x="74.50999999999999" y="780" />
            </Array>
          </mxGeometry>
        </mxCell>
        <mxCell id="XNlw5FPeqtOS92LYTXNj-38" style="edgeStyle=none;rounded=0;html=1;labelBackgroundColor=none;startArrow=none;startFill=0;startSize=5;endArrow=classicThin;endFill=1;endSize=5;jettySize=auto;orthogonalLoop=1;strokeWidth=1;fontFamily=Verdana;fontSize=12;" parent="1c1d494c118603dd-4" edge="1">
          <mxGeometry relative="1" as="geometry">
            <mxPoint x="176.13" y="780" as="sourcePoint" />
            <mxPoint x="175.63" y="800" as="targetPoint" />
          </mxGeometry>
        </mxCell>
        <mxCell id="XNlw5FPeqtOS92LYTXNj-49" style="edgeStyle=orthogonalEdgeStyle;rounded=0;orthogonalLoop=1;jettySize=auto;html=1;entryX=0.5;entryY=0;entryDx=0;entryDy=0;" parent="1c1d494c118603dd-4" target="1c1d494c118603dd-12" edge="1">
          <mxGeometry relative="1" as="geometry">
            <mxPoint x="-60" y="690" as="sourcePoint" />
            <mxPoint x="177.06500000000005" y="530" as="targetPoint" />
            <Array as="points">
              <mxPoint x="-60" y="690" />
              <mxPoint x="124" y="690" />
            </Array>
          </mxGeometry>
        </mxCell>
        <mxCell id="u8ni4VSXbeXr_Ucm6xt7-7" style="edgeStyle=orthogonalEdgeStyle;rounded=0;orthogonalLoop=1;jettySize=auto;html=1;entryX=0.5;entryY=0;entryDx=0;entryDy=0;" edge="1" parent="1c1d494c118603dd-4" source="u8ni4VSXbeXr_Ucm6xt7-1" target="XNlw5FPeqtOS92LYTXNj-18">
          <mxGeometry relative="1" as="geometry">
            <Array as="points">
              <mxPoint x="186" y="310" />
            </Array>
          </mxGeometry>
        </mxCell>
        <mxCell id="u8ni4VSXbeXr_Ucm6xt7-8" value="" style="edgeStyle=orthogonalEdgeStyle;rounded=0;orthogonalLoop=1;jettySize=auto;html=1;entryX=0.5;entryY=0;entryDx=0;entryDy=0;" edge="1" parent="1c1d494c118603dd-4" source="u8ni4VSXbeXr_Ucm6xt7-1" target="u8ni4VSXbeXr_Ucm6xt7-9">
          <mxGeometry relative="1" as="geometry">
            <Array as="points">
              <mxPoint x="71" y="310" />
            </Array>
          </mxGeometry>
        </mxCell>
        <mxCell id="u8ni4VSXbeXr_Ucm6xt7-1" value="" style="rhombus;whiteSpace=wrap;html=1;" vertex="1" parent="1c1d494c118603dd-4">
          <mxGeometry x="110" y="290" width="40" height="40" as="geometry" />
        </mxCell>
        <mxCell id="u8ni4VSXbeXr_Ucm6xt7-2" value="possible" style="text;html=1;align=center;verticalAlign=middle;whiteSpace=wrap;rounded=0;" vertex="1" parent="1c1d494c118603dd-4">
          <mxGeometry x="155.63" y="280" width="60" height="30" as="geometry" />
        </mxCell>
        <mxCell id="u8ni4VSXbeXr_Ucm6xt7-3" value="not possible" style="text;html=1;align=center;verticalAlign=middle;whiteSpace=wrap;rounded=0;" vertex="1" parent="1c1d494c118603dd-4">
          <mxGeometry x="80" y="320" width="51.25" height="30" as="geometry" />
        </mxCell>
        <mxCell id="u8ni4VSXbeXr_Ucm6xt7-9" value="Decline request" style="rounded=1;whiteSpace=wrap;html=1;shadow=0;comic=0;labelBackgroundColor=none;strokeWidth=1;fontFamily=Verdana;fontSize=12;align=center;arcSize=50;" vertex="1" parent="1c1d494c118603dd-4">
          <mxGeometry x="35" y="360" width="71.25" height="50" as="geometry" />
        </mxCell>
        <mxCell id="u8ni4VSXbeXr_Ucm6xt7-23" style="edgeStyle=orthogonalEdgeStyle;rounded=0;orthogonalLoop=1;jettySize=auto;html=1;entryX=0.5;entryY=0;entryDx=0;entryDy=0;" edge="1" parent="1c1d494c118603dd-1" source="XNlw5FPeqtOS92LYTXNj-22" target="u8ni4VSXbeXr_Ucm6xt7-20">
          <mxGeometry relative="1" as="geometry" />
        </mxCell>
        <mxCell id="u8ni4VSXbeXr_Ucm6xt7-28" style="edgeStyle=orthogonalEdgeStyle;rounded=0;orthogonalLoop=1;jettySize=auto;html=1;" edge="1" parent="1c1d494c118603dd-1" source="XNlw5FPeqtOS92LYTXNj-24" target="XNlw5FPeqtOS92LYTXNj-25">
          <mxGeometry relative="1" as="geometry" />
        </mxCell>
        <mxCell id="u8ni4VSXbeXr_Ucm6xt7-36" style="edgeStyle=orthogonalEdgeStyle;rounded=0;orthogonalLoop=1;jettySize=auto;html=1;entryX=0.5;entryY=0;entryDx=0;entryDy=0;exitX=0.5;exitY=1;exitDx=0;exitDy=0;" edge="1" parent="1c1d494c118603dd-1" source="u8ni4VSXbeXr_Ucm6xt7-33" target="u8ni4VSXbeXr_Ucm6xt7-37">
          <mxGeometry relative="1" as="geometry">
            <mxPoint x="223.68" y="410" as="targetPoint" />
            <mxPoint x="443.97999999999996" y="520" as="sourcePoint" />
            <Array as="points">
              <mxPoint x="370" y="520" />
              <mxPoint x="370" y="540" />
              <mxPoint x="197" y="540" />
              <mxPoint x="197" y="390" />
              <mxPoint x="115" y="390" />
            </Array>
          </mxGeometry>
        </mxCell>
        <mxCell id="u8ni4VSXbeXr_Ucm6xt7-46" style="edgeStyle=orthogonalEdgeStyle;rounded=0;orthogonalLoop=1;jettySize=auto;html=1;entryX=0.5;entryY=0;entryDx=0;entryDy=0;" edge="1" parent="1c1d494c118603dd-1" source="u8ni4VSXbeXr_Ucm6xt7-9" target="u8ni4VSXbeXr_Ucm6xt7-29">
          <mxGeometry relative="1" as="geometry" />
        </mxCell>
      </root>
    </mxGraphModel>
  </diagram>
</mxfile>
